<?xml version="1.0" encoding="utf-8"?>
<!-- Generator: Adobe Illustrator 16.0.0, SVG Export Plug-In . SVG Version: 6.00 Build 0)  -->
<!DOCTYPE svg PUBLIC "-//W3C//DTD SVG 1.1//EN" "http://www.w3.org/Graphics/SVG/1.1/DTD/svg11.dtd">
<svg version="1.1" xmlns="http://www.w3.org/2000/svg" xmlns:xlink="http://www.w3.org/1999/xlink" x="0px" y="0px"
	 width="225.098px" height="225.098px" viewBox="0 0 225.098 225.098" enable-background="new 0 0 225.098 225.098"
	 xml:space="preserve">
<g id="HTML" display="none">
	<path display="inline" fill="#FFFFFF" d="M218.243,74.547c0-16.691-13.582-30.272-30.271-30.272
		c-16.69,0-30.271,13.581-30.271,30.272c0,14.594,10.384,26.809,24.15,29.648v16.302c0,12.824-10.438,23.262-23.262,23.262h-16.082
		c-2.32-11.947-11.688-21.41-23.588-23.863v-15.701c13.766-2.839,24.148-15.054,24.148-29.648c0-16.691-13.58-30.272-30.27-30.272
		c-16.69,0-30.271,13.581-30.271,30.272c0,14.594,10.383,26.809,24.149,29.647v15.701c-11.9,2.454-21.267,11.915-23.588,23.861
		H66.691c-12.827,0-23.262-10.435-23.262-23.262v-16.243c13.922-2.717,24.464-15.001,24.464-29.706
		c0-16.691-13.58-30.272-30.271-30.272c-16.689,0-30.27,13.581-30.27,30.272c0,14.481,10.226,26.615,23.833,29.575v16.374
		C31.186,140.07,47.114,156,66.691,156h16.537c2.968,13.6,15.097,23.812,29.57,23.812c14.472,0,26.599-10.212,29.568-23.81h16.223
		c19.576,0,35.505-15.934,35.505-35.506v-16.302C207.863,101.357,218.243,89.142,218.243,74.547z M19.596,74.547
		c0-9.941,8.087-18.028,18.027-18.028c9.939,0,18.028,8.085,18.028,18.028c0,9.939-8.089,18.027-18.028,18.027
		C27.685,92.575,19.596,84.49,19.596,74.547z M94.771,74.547c0-9.941,8.085-18.028,18.027-18.028
		c9.941,0,18.023,8.085,18.023,18.028c0,9.939-8.086,18.027-18.023,18.027C102.858,92.575,94.771,84.49,94.771,74.547z
		 M112.798,167.567c-9.94,0-18.027-8.085-18.027-18.027c0-9.938,8.085-18.025,18.027-18.025c9.941,0,18.023,8.087,18.023,18.025
		C130.822,159.48,122.736,167.567,112.798,167.567z M187.972,92.575c-9.94,0-18.027-8.085-18.027-18.027
		c0-9.941,8.087-18.028,18.027-18.028c9.941,0,18.028,8.085,18.028,18.028C206,84.487,197.91,92.575,187.972,92.575z"/>
</g>
<g id="CSS" display="none">
	<g display="inline">
		<path fill="#FFFFFF" d="M58.137,166.678l0.258,0.132c0.065,0.031,0.179,0.095,0.291,0.159c0.466,0.2,1.002,0.32,1.556,0.343
			l0.249-0.004l10.821,0.007c1.232,0,2.392-0.479,3.263-1.345c0.867-0.865,1.345-2.018,1.344-3.242c0-2.533-2.074-4.59-4.623-4.59
			h-6.257l0.001-27.592c0.024-0.441,0.002-0.833-0.064-1.157c-0.233-1.433-0.987-2.587-2.092-3.29l-0.539-0.432l-10.032-10.033
			l11.152-11.162c0.562-0.5,0.976-1.075,1.229-1.708c0.12-0.285,0.168-0.513,0.223-0.736l0.06-0.213
			c0.057-0.342,0.086-0.84,0.067-1.261l0.003-27.973h6.256c2.591,0,4.619-1.95,4.619-4.442c0-1.217-0.472-2.354-1.331-3.2
			c-0.868-0.854-2.031-1.325-3.275-1.325l-10.88,0.066c-0.577,0-1.147,0.112-1.705,0.332c-0.154,0.095-0.26,0.155-0.368,0.212
			l-0.245,0.126c-0.098,0.048-0.198,0.092-0.287,0.148c-0.177,0.121-0.354,0.288-0.531,0.455l-0.23,0.196
			c-0.134,0.146-0.286,0.334-0.43,0.543l-0.116,0.165c-0.108,0.183-0.201,0.376-0.293,0.57l-0.096,0.19
			c-0.054,0.146-0.084,0.304-0.124,0.456c-0.035,0.145-0.084,0.297-0.135,0.449c-0.034,0.15-0.082,0.318-0.133,0.485
			c-0.017,0.048-0.009-0.009-0.003-0.07c-0.033,0.327-0.106,0.609-0.177,0.83l0.133,30.294L42.674,112.16
			c-0.877,0.879-1.344,2.071-1.318,3.363l0.001,0.079l-0.001,0.08c-0.04,1.283,0.443,2.493,1.358,3.406l12.984,13.1l-0.135,30.044
			c0.075,0.228,0.146,0.508,0.177,0.835c0.008,0.096,0.027,0.192,0.046,0.289c0.062,0.148,0.114,0.295,0.155,0.438
			c0.056,0.206,0.102,0.384,0.159,0.547c0.05,0.095,0.096,0.185,0.137,0.277c0.075,0.165,0.162,0.339,0.262,0.509l0.163,0.24
			c0.134,0.189,0.267,0.355,0.399,0.496c0.08,0.064,0.156,0.13,0.231,0.197c0.171,0.161,0.338,0.322,0.533,0.452
			C57.93,166.581,58.034,166.627,58.137,166.678"/>
		<path fill="#FFFFFF" d="M183.783,115.402c0.04-1.438-0.441-2.649-1.357-3.564l-12.979-13.097l0.135-30.044
			c-0.076-0.228-0.146-0.513-0.177-0.844c-0.008-0.087-0.026-0.183-0.046-0.28c-0.067-0.161-0.121-0.317-0.165-0.476
			c-0.046-0.178-0.093-0.351-0.149-0.516c-0.055-0.098-0.104-0.197-0.147-0.297c-0.085-0.183-0.173-0.356-0.265-0.512l-0.143-0.206
			c-0.124-0.175-0.264-0.351-0.407-0.503c-0.081-0.065-0.157-0.13-0.229-0.198c-0.172-0.161-0.346-0.328-0.547-0.46
			c-0.111-0.073-0.226-0.122-0.334-0.176l-0.195-0.098c-0.102-0.054-0.23-0.124-0.355-0.197c-0.429-0.182-0.961-0.299-1.518-0.321
			l-0.252,0.003l-10.821-0.006c-1.231,0-2.392,0.479-3.263,1.345c-0.868,0.865-1.348,2.017-1.346,3.241
			c0,2.531,2.074,4.589,4.625,4.589h6.254l-0.002,27.597c-0.023,0.437-0.002,0.827,0.065,1.152c0.231,1.433,0.987,2.587,2.089,3.289
			l0.543,0.433l10.032,10.031l-11.153,11.163c-0.562,0.502-0.975,1.077-1.226,1.707c-0.119,0.282-0.167,0.505-0.222,0.731
			l-0.063,0.225c-0.057,0.342-0.086,0.844-0.067,1.249l-0.004,27.981h-6.254c-2.592,0-4.621,1.95-4.621,4.441
			c-0.002,1.218,0.472,2.353,1.332,3.201c0.865,0.854,2.026,1.323,3.27,1.325l10.883-0.067c0.576,0,1.148-0.11,1.7-0.331l0.63-0.345
			c0.1-0.049,0.201-0.095,0.295-0.153c0.152-0.105,0.339-0.278,0.527-0.45l0.214-0.187c0.137-0.148,0.291-0.337,0.432-0.543
			l0.117-0.166c0.106-0.183,0.199-0.377,0.291-0.571l0.095-0.185c0.057-0.157,0.09-0.322,0.131-0.485
			c0.032-0.133,0.078-0.278,0.131-0.426c0.037-0.16,0.084-0.321,0.133-0.486c0.019-0.042,0.008,0.021,0.002,0.095
			c0.033-0.342,0.107-0.63,0.182-0.855l-0.135-30.288l13.021-13.097C183.345,117.892,183.81,116.698,183.783,115.402"/>
		<path fill="#FFFFFF" d="M129.32,69.716l-21.831-1.89l1.538-16.67l21.827,1.896L129.32,69.716z M121.033,159.981l-21.835-1.89
			l7.453-81.08l21.83,1.895L121.033,159.981z M138.775,45.262c-0.559-0.451-1.403-0.992-2.225-0.992l-0.357-0.015l-31.107-2.912
			c-0.073,0.011-0.16,0.028-0.247,0.041c-0.076,0.012-0.152,0.023-0.228,0.034c-0.228,0.084-0.442,0.148-0.654,0.19
			c-0.19,0.037-0.369,0.078-0.537,0.132c-0.085,0.033-0.18,0.087-0.277,0.134l-0.562,0.263c-0.194,0.105-0.392,0.263-0.59,0.418
			l-0.222,0.163c-0.114,0.104-0.28,0.279-0.472,0.504l-0.114,0.131c-0.129,0.179-0.253,0.388-0.351,0.56l-0.114,0.19
			c-0.087,0.197-0.139,0.363-0.196,0.524c-0.032,0.092-0.071,0.191-0.114,0.293c-0.003,0.037-0.011,0.094-0.021,0.148l-0.044,0.282
			c-0.022,0.131-0.052,0.275-0.084,0.419L89.607,161.6c-0.199,1.35,0.154,2.647,0.997,3.647l14.004,16.646
			c0.055,0.087,0.104,0.177,0.167,0.26c0.89,1.06,2.177,1.659,3.546,1.659c1.096,0,2.12-0.372,2.961-1.081l16.917-14.231
			c0.174-0.147,0.363-0.346,0.576-0.604l0.105-0.129c0.584-0.791,0.885-1.638,0.934-2.548l8.176-89.004l0.076-0.273
			c0.092-0.329,0.141-0.582,0.16-0.799c0.017-0.208,0.012-0.443-0.016-0.757l-0.025-0.283l2.287-24.864
			C140.605,47.725,139.97,46.232,138.775,45.262"/>
	</g>
</g>
<g id="HTML_x2F_CSS">
	<g>
		<path fill="#FFFFFF" d="M119.327,86.416c4.526-1.178,7.877-5.266,7.877-10.11c0-4.846-3.351-8.934-7.877-10.111V52.331
			l5.955,3.098l6.192,24.808c0.231,1.796-0.318,3.604-1.516,4.979c-1.229,1.407-3.011,2.215-4.889,2.215h-5.745v-1.014H119.327z
			 M116.259,93.5h8.811c3.662,0,7.135-1.573,9.527-4.316c2.394-2.743,3.459-6.374,2.928-9.961c-0.018-0.096-0.035-0.192-0.059-0.285
			l-6.563-26.286c-0.212-0.842-0.775-1.556-1.55-1.959l-11.668-6.068c-0.95-0.496-2.092-0.462-3.012,0.09
			c-0.919,0.548-1.48,1.532-1.48,2.597v21.617c0,0.834,0.346,1.631,0.957,2.203c0.609,0.572,1.422,0.863,2.271,0.827
			c0.057-0.002,0.213-0.021,0.332-0.034c2.389,0.061,4.314,2.003,4.314,4.382c0,2.377-1.92,4.316-4.307,4.382
			c-0.123-0.015-0.291-0.031-0.363-0.035c-0.861-0.036-1.654,0.263-2.258,0.838c-0.606,0.574-0.95,1.365-0.95,2.195v6.781
			C113.193,92.143,114.566,93.5,116.259,93.5"/>
		<path fill="#FFFFFF" d="M128.064,159.268c1.312,0,2.375,1.052,2.375,2.351c0,1.298-1.063,2.351-2.375,2.351
			c-1.312,0-2.375-1.053-2.375-2.351C125.689,160.32,126.751,159.268,128.064,159.268"/>
		<path fill="#FFFFFF" d="M156.006,154.678l2.845-2.816l30.408-9.271l0.229,0.734L156.006,154.678z M179.265,162.797
			c2.353,0,4.27,1.898,4.27,4.372c0,2.328-1.917,4.227-4.27,4.227h-39.99c0.082-0.124,0.146-0.259,0.226-0.383l8.3-8.216H179.265z
			 M123.449,173.744h-2.16l-1.887-72.826h5.287c5.307,0,9.623,4.273,9.625,9.646l2.041,50.405
			C136.357,168.013,130.568,173.744,123.449,173.744 M142.577,146.047l4.438-0.616c1.356-0.188,2.42-1.242,2.608-2.585l0.62-4.385
			l4.438-0.618c1.354-0.19,2.422-1.244,2.606-2.588l0.616-4.374l4.429-0.614c1.354-0.188,2.422-1.242,2.61-2.581l0.623-4.391
			l4.433-0.614c1.353-0.188,2.42-1.24,2.61-2.579l0.255-1.791c0.896,4.971-2.392,13.465-10.241,21.234l-20.009,19.806l-0.269,0.153
			l-0.025-2.775l-0.28-6.914L142.577,146.047z M196.222,144.351l-2.005-6.447c-0.238-0.769-0.778-1.412-1.496-1.791
			c-0.719-0.376-1.557-0.451-2.336-0.216l-22.353,6.814c10.904-11.435,14.343-25.15,7.729-31.694
			c-0.041-0.041-0.096-0.054-0.137-0.091c-0.015-0.013-0.027-0.027-0.041-0.039c-0.973-0.935-2.414-1.106-3.554-0.516
			c-0.388-0.217-0.828-0.354-1.3-0.385c-1.589-0.104-3.02,1.028-3.245,2.604l-0.627,4.398l-4.435,0.615
			c-1.354,0.188-2.422,1.242-2.61,2.581l-0.623,4.392l-4.434,0.614c-1.357,0.188-2.423,1.245-2.609,2.588l-0.615,4.373l-4.436,0.619
			c-1.354,0.188-2.42,1.245-2.607,2.586l-0.619,4.384l-2.229,0.309l-1.199-29.607c0-8.597-7.067-15.593-15.754-15.593h-8.431
			c-0.825,0-1.618,0.332-2.194,0.917c-0.576,0.584-0.892,1.377-0.87,2.194l2.044,78.896c0.043,1.644,1.401,2.957,3.065,2.957h5.148
			c3.328,0,6.455-0.854,9.179-2.349h46.636c5.735,0,10.401-4.618,10.401-10.44c0-5.676-4.666-10.295-10.401-10.295h-10.389
			l25.411-8.615C195.852,147.583,196.709,145.917,196.222,144.351"/>
		<path fill="#FFFFFF" d="M105.134,66.197c-4.527,1.177-7.877,5.263-7.877,10.109c0,4.848,3.35,8.935,7.877,10.111v1.015h-5.745
			c-1.878,0-3.66-0.807-4.889-2.215c-1.197-1.373-1.747-3.182-1.518-4.978l6.195-24.809l5.955-3.097v13.862H105.134z
			 M109.786,44.712c-0.92-0.55-2.064-0.585-3.013-0.089l-11.666,6.069c-0.774,0.401-1.34,1.116-1.549,1.958l-6.565,26.286
			c-0.024,0.093-0.043,0.189-0.057,0.284c-0.535,3.585,0.532,7.217,2.925,9.961c2.393,2.746,5.866,4.317,9.528,4.317h8.811
			c1.694,0,3.066-1.356,3.066-3.034v-6.78c0-0.829-0.342-1.622-0.949-2.195c-0.607-0.572-1.406-0.872-2.258-0.837
			c-0.061,0.002-0.229,0.02-0.356,0.034c-2.387-0.062-4.312-2.004-4.312-4.385c0-2.377,1.921-4.316,4.306-4.381
			c0.114,0.012,0.274,0.028,0.339,0.032c0.828,0.038,1.662-0.255,2.273-0.827c0.611-0.573,0.957-1.37,0.957-2.203V47.31
			C111.266,46.248,110.704,45.262,109.786,44.712"/>
		<path fill="#FFFFFF" d="M103.168,173.744h-2.158c-7.117,0-12.907-5.73-12.909-12.655l2.046-50.648
			c0-5.252,4.317-9.523,9.622-9.523h5.287L103.168,173.744z M33.484,170.139v-0.767h49.814l1.588,1.571
			c0.172,0.271,0.344,0.54,0.528,0.801L33.484,170.139z M45.849,123.725c0.605-0.13,1.272-0.197,1.995-0.197
			c5.686,0,13.446,4.042,19.77,10.301l14.86,14.71l-0.443,10.996L45.849,123.725z M108.2,94.849h-8.433
			c-8.686,0-15.754,6.995-15.752,15.469l-1.21,29.966l-10.858-10.747c-7.528-7.452-16.765-12.078-24.105-12.078
			c-3.701,0-6.832,1.162-9.158,3.465l-2.169,2.146l40.65,40.234H30.419c-1.695,0-3.066,1.36-3.066,3.035v6.742
			c0,1.641,1.316,2.981,2.97,3.032l62.699,1.94c2.433,1.119,5.133,1.76,7.986,1.76h5.146c1.662,0,3.023-1.311,3.066-2.958
			l2.044-78.895c0.02-0.817-0.293-1.61-0.869-2.195C109.819,95.181,109.026,94.849,108.2,94.849"/>
		<path fill="#FFFFFF" d="M96.395,159.268c1.312,0,2.375,1.052,2.375,2.351c0,1.298-1.063,2.351-2.375,2.351
			s-2.375-1.053-2.375-2.351C94.02,160.32,95.083,159.268,96.395,159.268"/>
	</g>
</g>
<g id="CSS_AVANCE" display="none">
	<g display="inline">
		<path fill="#FFFFFF" d="M139.425,120v3.268h-3.269v2.693h3.269v3.268h2.692v-3.268h3.269v-2.693h-3.269V120H139.425z
			 M138.821,64.32h3.897v-4.732h4.734V55.69h-4.734v-4.732h-3.897v4.73h-4.734v3.898h4.734V64.32z M108.441,67.082h5.508v-6.689
			h6.69v-5.507h-6.69v-6.689h-5.508v6.689h-6.687v5.507h6.687V67.082z M83.391,57.639h3.898v-4.734h4.733v-3.897h-4.733v-4.733
			h-3.898v4.733h-4.734v3.898h4.734V57.639z M90.676,68.573v3.271h-3.271v2.691h3.271v3.271h2.691v-3.271h3.27v-2.692h-3.27v-3.271
			L90.676,68.573L90.676,68.573z M79.681,129.228v-3.268h3.269v-2.693h-3.269V120h-2.693v3.268h-3.271v2.693h3.271v3.268H79.681z
			 M127.388,77.805h2.693v-3.271h3.27v-2.691h-3.27v-3.271h-2.693v3.271h-3.268v2.691h3.268V77.805z M156.888,99.052v-6.689h-5.508
			v6.689h-6.688v5.507h6.688v6.689h5.508v-6.689h6.69v-5.507H156.888z M67.042,82.631h5.508v-6.688h6.688v-5.508H72.55v-6.688
			h-5.508v6.688h-6.689v5.508h6.689V82.631z M145.502,73.188v4.733h-4.731v3.898h4.731v4.733h3.897V81.82h4.736v-3.898H149.4v-4.733
			H145.502z M69.273,105.728v-4.733h4.735v-3.898h-4.735v-4.733h-3.898v4.733h-4.731v3.898h4.731v4.733H69.273z M144.865,137.976
			H77.529c-5.635,0-10.201,8.068-10.201,18.018v23.819h87.741v-23.819C155.068,146.044,150.499,137.976,144.865,137.976
			 M137.054,105.728c0,14.282-11.578,25.859-25.857,25.859c-14.282,0-25.859-11.577-25.859-25.859
			c0-14.28,11.577-25.858,25.859-25.858C125.476,79.872,137.054,91.448,137.054,105.728"/>
	</g>
</g>
<g id="JS" display="none">
	<g display="inline">
		<path fill="#FFFFFF" d="M142.337,152.898c0,1.066-0.941,1.929-2.101,1.929h-16.763c-1.16,0-2.102-0.862-2.102-1.929v-9.093
			c0-1.063,0.941-1.926,2.102-1.926h16.763c1.159,0,2.101,0.862,2.101,1.926V152.898z"/>
	</g>
	<polygon display="inline" fill="#FFFFFF" points="122.478,157.485 120.055,174.011 115.496,174.011 115.496,179.813 
		148.214,179.813 148.214,174.011 143.768,174.011 141.339,157.485 	"/>
	<g display="inline">
		<path fill="#FFFFFF" d="M103.792,152.898c0,1.066-0.94,1.929-2.104,1.929H84.93c-1.157,0-2.104-0.862-2.104-1.929v-9.093
			c0-1.063,0.949-1.926,2.104-1.926h16.756c1.165,0,2.104,0.862,2.104,1.926v9.093H103.792z"/>
	</g>
	<polygon display="inline" fill="#FFFFFF" points="83.879,157.485 81.452,174.011 76.953,174.011 76.953,179.813 109.674,179.813 
		109.674,174.011 105.166,174.011 102.744,157.485 	"/>
	<g display="inline">
		<path fill="#FFFFFF" d="M137.894,139.329v-7h9.472c1.083,0,1.962-0.86,1.962-1.931v-11.344c0-1.068-0.879-1.929-1.962-1.929H77.77
			c-1.087,0-1.961,0.86-1.961,1.929v11.344c0,1.07,0.874,1.931,1.961,1.931h9.501v7h12.082v-7h26.461v7H137.894z"/>
		<path fill="#FFFFFF" d="M123.535,61.391c-3.208,0-5.812-2.56-5.812-5.712c0-3.157,2.604-5.715,5.812-5.715
			c3.205,0,5.805,2.558,5.805,5.715C129.339,58.833,126.738,61.391,123.535,61.391 M101.917,61.391c-3.208,0-5.807-2.56-5.807-5.712
			c0-3.157,2.6-5.715,5.807-5.715c3.204,0,5.806,2.558,5.806,5.715C107.723,58.833,105.12,61.391,101.917,61.391 M133.015,44.274
			H92.433c-1.27,0-2.3,1.016-2.3,2.261v23.214c0,1.251,1.03,2.259,2.3,2.259h40.583c1.27,0,2.299-1.008,2.299-2.259V46.537
			C135.314,45.29,134.285,44.274,133.015,44.274"/>
		<path fill="#FFFFFF" d="M88.639,65.955h-1.524c-1.082,0-1.958-0.863-1.958-1.928V52.259c0-1.067,0.877-1.931,1.958-1.931h1.524
			V65.955z"/>
		<path fill="#FFFFFF" d="M83.996,63.39h-1.073c-1.082,0-1.961-0.866-1.961-1.93v-6.636c0-1.063,0.881-1.927,1.961-1.927h1.073
			V63.39z"/>
		<path fill="#FFFFFF" d="M136.492,65.955h1.523c1.084,0,1.959-0.863,1.959-1.928V52.259c0-1.067-0.875-1.931-1.959-1.931h-1.523
			V65.955z"/>
		<path fill="#FFFFFF" d="M141.139,63.39h1.07c1.08,0,1.963-0.866,1.963-1.93v-6.636c0-1.063-0.883-1.927-1.963-1.927h-1.07V63.39z"
			/>
		<path fill="#FFFFFF" d="M127.414,106.159h-3.934V93.06h3.934V106.159z M120.969,106.159h-3.93V93.06h3.93V106.159z
			 M114.533,106.159h-3.931V93.06h3.931V106.159z M108.096,106.159h-3.936V93.06h3.936V106.159z M101.652,106.159h-3.93V93.06h3.93
			V106.159z M169.009,120.44V98.798c0-10.101-8.357-18.321-18.625-18.321h-1.057v-1.171c0-1.064-0.879-1.929-1.963-1.929H77.77
			c-1.087,0-1.961,0.866-1.961,1.929v1.171h-1.06c-10.265,0-18.622,8.221-18.622,18.321v21.642
			c-3.973,1.659-6.773,5.536-6.773,10.046h3.544c0-4.103,3.382-7.424,7.548-7.424c4.162,0,7.544,3.321,7.544,7.424h3.542
			c0-4.439-2.711-8.255-6.581-9.957v-21.73c0-5.321,4.384-9.644,9.796-9.644h1.061v22.186c0,1.067,0.874,1.926,1.96,1.926h69.597
			c1.084,0,1.963-0.858,1.963-1.926V89.155h1.057c5.412,0,9.801,4.322,9.801,9.644v21.73c-3.873,1.702-6.584,5.518-6.584,9.957
			h3.539c0-4.103,3.381-7.424,7.551-7.424c4.166,0,7.547,3.321,7.547,7.424h3.543C175.781,125.976,172.982,122.099,169.009,120.44"
			/>
	</g>
</g>
<g id="JS_COND" display="none">
	<g display="inline">
		<path fill="#FFFFFF" d="M107.777,146.874h8.485c2.944,0,5-2.055,5-5V95.207c0-1.695-1.183-2.878-2.877-2.878
			c-1.696,0-2.879,1.183-2.879,2.878v45.909h-6.97V95.207c0-1.695-1.183-2.878-2.879-2.878c-1.695,0-2.878,1.183-2.878,2.878v46.667
			C102.777,144.819,104.833,146.874,107.777,146.874"/>
		<path fill="#FFFFFF" d="M79.032,90.753c-1.105,3.227-1.71,7.036-1.71,10.818v33.959c-2.413-6.816-6.969-21.104-6.969-31.839
			c0-5.632,0.854-10.266,2.842-15.343L79.032,90.753z M117.625,56.613c-1.842-0.18-3.729-0.345-5.605-0.345
			c-1.875,0-3.763,0.163-5.606,0.345v-3.829c0-1.922,1.564-3.486,3.485-3.486h4.242c1.922,0,3.484,1.564,3.484,3.486V56.613z
			 M135.55,76.121c-6.447-5.969-14.773-9.247-23.531-9.247c-8.757,0-17.085,3.277-23.53,9.247l-3.792-3.793
			c7.556-6.65,17.227-10.303,27.322-10.303c9.883,0,19.553,3.655,27.314,10.311L135.55,76.121z M83.08,101.572
			c0-15.957,12.982-28.941,28.939-28.941c15.956,0,28.939,12.982,28.939,28.941v44.544c0,15.958-12.981,28.941-28.939,28.941
			c-15.957,0-28.939-12.982-28.939-28.941V101.572z M143.363,76.393c1.532,1.864,3.338,4.195,4.889,6.769l-5.541,2.183
			c-0.954-1.745-2.166-3.358-3.377-4.923L143.363,76.393z M75.748,83.145c1.179-2.177,2.789-4.4,4.894-6.766l3.865,4.033
			c-1.294,1.708-2.321,3.3-3.182,4.93L75.748,83.145z M144.789,90.756l5.843-2.407c1.622,4.074,3.055,8.791,3.055,15.343
			c0,10.734-4.556,25.022-6.97,31.839v-33.959C146.716,98.063,146.121,94.701,144.789,90.756 M158.686,94.451h-0.223
			c-3.625-17.952-17.302-32.277-35.08-36.747v-4.92c0-5.097-4.146-9.244-9.243-9.244h-4.242c-5.097,0-9.242,4.146-9.242,9.244v4.92
			c-17.781,4.47-31.455,18.795-35.079,36.747h-0.224c-2.944,0-5,2.055-5,5v8.485c0,2.943,2.056,5.001,5,5.001h0.192
			c0.356,2.449,0.727,4.717,1.344,6.97h-1.536c-1.696,0-2.879,1.183-2.879,2.879c0,1.694,1.183,2.877,2.879,2.877h3.027
			c2.179,7.955,4.85,15.396,6.479,19.697h-1.022c-1.695,0-2.878,1.184-2.878,2.877c0,1.696,1.183,2.879,2.878,2.879h3.095
			l1.49,3.726c5.502,16.507,17.747,25.972,33.597,25.972c15.861,0,27.791-9.22,33.594-25.961l1.309-3.736h3.279
			c1.694,0,2.877-1.183,2.877-2.879c0-1.693-1.183-2.877-2.877-2.877h-1.023c2.079-5.544,4.382-12.776,6.27-19.697h3.239
			c1.694,0,2.877-1.183,2.877-2.877c0-1.696-1.183-2.879-2.877-2.879h-1.594c0.515-2.239,1.024-4.547,1.399-6.97h0.194
			c2.943,0,5-2.057,5-5.001v-8.485C163.686,96.505,161.629,94.451,158.686,94.451"/>
		<path fill="#FFFFFF" d="M131.111,124.147c-0.853,0-1.362-0.511-1.362-1.363s0.51-1.363,1.362-1.363
			c0.854,0,1.363,0.511,1.363,1.363S131.965,124.147,131.111,124.147 M131.111,129.904c6.004,0,9.242-5.053,9.242-7.12
			c0-2.066-3.24-7.122-9.242-7.122c-6.004,0-9.242,5.056-9.242,7.122C121.869,124.851,125.107,129.904,131.111,129.904"/>
		<path fill="#FFFFFF" d="M92.929,124.146c-0.853,0-1.364-0.509-1.364-1.362c0-0.853,0.509-1.363,1.364-1.363
			c0.854,0,1.363,0.511,1.363,1.363C94.292,123.637,93.782,124.146,92.929,124.146 M102.171,122.784
			c0-2.066-3.239-7.123-9.242-7.123s-9.243,5.057-9.243,7.123c0,2.067,3.24,7.12,9.243,7.12S102.171,124.851,102.171,122.784"/>
		<path fill="#FFFFFF" d="M122.625,151.723h-21.212c-1.696,0-2.879,1.184-2.879,2.88c0,1.693,1.183,2.877,2.879,2.877h21.212
			c1.696,0,2.879-1.184,2.879-2.877C125.504,152.907,124.322,151.723,122.625,151.723"/>
		<path fill="#FFFFFF" d="M116.262,160.207h-8.485c-1.695,0-2.879,1.184-2.879,2.879s1.184,2.879,2.879,2.879h8.485
			c1.694,0,2.879-1.184,2.879-2.879S117.957,160.207,116.262,160.207"/>
	</g>
</g>
<g id="JS_DOM" display="none">
	
		<rect x="132.391" y="45.995" transform="matrix(-0.7071 -0.7071 0.7071 -0.7071 187.7358 252.9961)" display="inline" fill="#FFFFFF" width="27.748" height="83.242"/>
	<g display="inline">
		<path fill="#FFFFFF" d="M53.068,180.813h103.007c9.494,0,14.715-5.221,14.715-14.715v-53.956l-14.715,14.715v34.336
			c0,2.438-2.467,4.905-4.905,4.905H57.973c-2.438,0-4.905-2.468-4.905-4.905V67.996c0-2.438,2.467-9.81,4.905-9.81h68.671
			l14.717-14.716H53.068c-9.49,0-14.715,5.221-14.715,14.716v107.912C38.354,175.592,43.578,180.813,53.068,180.813"/>
	</g>
	<polygon display="inline" fill="#FFFFFF" points="102.119,112.141 97.214,136.667 121.74,131.761 	"/>
	<rect x="62.878" y="136.667" display="inline" fill="#FFFFFF" width="34.336" height="9.811"/>
</g>
<g id="JQUERY" display="none">
	<g display="inline">
		<path fill="#FFFFFF" d="M105.61,129.236c-0.974,0-1.929-0.472-2.498-1.337c-0.894-1.36-0.502-3.173,0.878-4.052l16.866-10.769
			c1.375-0.881,3.222-0.495,4.113,0.866c0.895,1.358,0.502,3.174-0.878,4.054l-16.867,10.768
			C106.727,129.082,106.165,129.236,105.61,129.236"/>
		<path fill="#FFFFFF" d="M81.047,129.236c-0.679,0-1.363-0.228-1.921-0.695l-13.415-11.187c-1.255-1.043-1.411-2.895-0.349-4.129
			c1.063-1.235,2.939-1.389,4.191-0.343l13.416,11.187c1.255,1.045,1.411,2.895,0.348,4.13
			C82.731,128.883,81.892,129.236,81.047,129.236"/>
		<path fill="#FFFFFF" d="M124.378,135.373H68.07c-7.741,0-14.017-6.185-14.017-13.811c0-7.627,6.276-13.81,14.017-13.81h56.309
			c7.742,0,14.016,6.183,14.016,13.81C138.394,129.188,132.119,135.373,124.378,135.373 M175.328,46.989
			c-3.559-2.745-8.702-2.128-11.482,1.38l-13.203,16.622l-3.783-3.091c-0.946-0.773-2.355-0.644-3.141,0.289
			c-0.787,0.936-0.656,2.321,0.293,3.096l3.879,3.169l-9.111,11.471c-9.844-7.768-22.326-12.424-35.917-12.424
			c-31.761,0-57.509,25.367-57.509,56.656s25.748,56.656,57.509,56.656c31.76,0,57.509-25.367,57.509-56.656
			c0-12.016-3.809-23.147-10.283-32.315l10.402-13.096l3.85,3.146c0.416,0.34,0.92,0.506,1.422,0.506
			c0.641,0,1.279-0.271,1.72-0.795c0.788-0.934,0.653-2.318-0.294-3.095l-3.946-3.224l13.487-16.98
			C179.511,54.797,178.886,49.731,175.328,46.989"/>
	</g>
</g>
<g id="JQUERY_ANIM" display="none">
	<g display="inline">
		<path fill="#FFFFFF" d="M144.841,141.977c-1.006-3.595,1.054-7.351,4.615-8.388c3.562-1.042,7.285,1.041,8.314,4.656
			c1.032,3.594-1.033,7.35-4.595,8.388h-0.021c-0.604,0.179-1.231,0.247-1.84,0.247C148.382,146.88,145.692,144.959,144.841,141.977
			 M124.335,151.064c-1.612-3.394-0.203-7.44,3.16-9.045c3.338-1.626,7.348-0.205,8.965,3.188c1.59,3.367,0.178,7.418-3.16,9.044
			c-0.94,0.453-1.926,0.658-2.911,0.658C127.876,154.905,125.481,153.479,124.335,151.064 M105.58,163.454
			c-2.154-3.077-1.414-7.302,1.616-9.475c3.046-2.147,7.238-1.4,9.366,1.651c2.15,3.053,1.414,7.304-1.611,9.45
			c-1.189,0.836-2.53,1.242-3.88,1.242C108.964,166.323,106.878,165.307,105.58,163.454 M89.151,178.824
			c-2.623-2.667-2.598-6.961,0.026-9.608c2.644-2.624,6.9-2.624,9.523,0.047c2.602,2.669,2.577,6.94-0.046,9.583
			c-1.299,1.311-3.025,1.968-4.726,1.968C92.176,180.813,90.45,180.16,89.151,178.824 M14.215,58.212
			c-3.363-1.604-4.793-5.63-3.228-9.022c1.57-3.394,5.581-4.861,8.944-3.278v0.021c3.364,1.584,4.794,5.63,3.228,9.022
			c-1.142,2.442-3.562,3.889-6.096,3.889C16.119,58.844,15.133,58.64,14.215,58.212 M32.632,68.905
			c-3.046-2.126-3.808-6.352-1.701-9.429c2.128-3.073,6.321-3.842,9.367-1.716c3.046,2.146,3.808,6.376,1.68,9.449
			c-1.299,1.9-3.385,2.916-5.513,2.916C35.145,70.125,33.8,69.742,32.632,68.905 M49.018,82.58c-2.645-2.62-2.691-6.918-0.089-9.606
			c2.577-2.668,6.833-2.712,9.502-0.111c2.645,2.625,2.691,6.918,0.114,9.606c-1.324,1.358-3.071,2.036-4.818,2.036
			C52.018,84.504,50.338,83.874,49.018,82.58 M62.933,98.791L62.933,98.791c-2.196-3.031-1.527-7.276,1.481-9.471
			c3.004-2.215,7.192-1.537,9.388,1.468c2.196,3.031,1.523,7.282-1.481,9.497c-1.184,0.858-2.577,1.289-3.943,1.289
			C66.297,101.574,64.257,100.601,62.933,98.791 M73.958,117.106L73.958,117.106c-1.637-3.347-0.292-7.418,3.025-9.091
			c3.339-1.675,7.375-0.316,9.033,3.051c1.633,3.347,0.292,7.414-3.025,9.087c-0.964,0.474-1.993,0.704-3.004,0.704
			C77.521,120.857,75.143,119.479,73.958,117.106 M81.802,137.021L81.802,137.021c-1.078-3.594,0.94-7.371,4.506-8.455
			c3.541-1.088,7.281,0.946,8.381,4.546c1.054,3.572-0.939,7.371-4.505,8.43c-0.652,0.204-1.299,0.294-1.951,0.294
			C85.343,141.839,82.674,139.961,81.802,137.021 M86.215,157.983c-0.47-3.71,2.149-7.1,5.826-7.577
			c3.676-0.452,7.04,2.194,7.509,5.903c0.449,3.73-2.149,7.098-5.851,7.571c-0.27,0.026-0.558,0.047-0.829,0.047
			C89.532,163.927,86.617,161.417,86.215,157.983 M188.867,110.183c-6.832,0-12.392,5.607-12.392,12.501s5.56,12.506,12.392,12.506
			c6.833,0,12.396-5.608,12.396-12.506C201.259,115.791,195.7,110.183,188.867,110.183 M188.867,148.758
			c-14.245,0-25.837-11.694-25.837-26.069c0-14.371,11.592-26.066,25.837-26.066c14.249,0,25.842,11.695,25.842,26.066
			C214.708,137.064,203.116,148.758,188.867,148.758"/>
	</g>
</g>
</svg>
